<svg xmlns="http://www.w3.org/2000/svg" xmlns:xlink="http://www.w3.org/1999/xlink" width="800" zoomAndPan="magnify" viewBox="0 0 600 599.999999" height="800" preserveAspectRatio="xMidYMid meet" version="1.0"><defs><clipPath id="9892391cab"><path d="M 85 76.589844 L 339 76.589844 L 339 205 L 85 205 Z M 85 76.589844 " clip-rule="nonzero"/></clipPath><clipPath id="578227088f"><path d="M 15.855469 311 L 584.355469 311 L 584.355469 523.589844 L 15.855469 523.589844 Z M 15.855469 311 " clip-rule="nonzero"/></clipPath></defs><rect x="-60" width="720" fill="#ffffff" y="-60" height="719.999999" fill-opacity="1"/><rect x="-60" width="720" fill="#ffffff" y="-60" height="719.999999" fill-opacity="1"/><path fill="#092a5e" d="M 190.574219 372.617188 L 197.6875 386.449219 L 216.019531 313.746094 C 219.132812 301.371094 229.457031 295.28125 239.78125 295.3125 L 239.78125 211.425781 L 168.503906 211.425781 L 168.503906 358.851562 C 177.207031 358.816406 185.976562 363.285156 190.574219 372.617188 Z M 190.574219 372.617188 " fill-opacity="1" fill-rule="evenodd"/><path fill="#092a5e" d="M 48.652344 253.089844 L 119.925781 253.089844 L 119.925781 399.453125 L 48.652344 399.453125 Z M 48.652344 253.089844 " fill-opacity="1" fill-rule="evenodd"/><path fill="#092a5e" d="M 288.355469 421.363281 L 309.964844 363.484375 C 317.609375 343.03125 346.363281 342.140625 355.265625 362.0625 L 359.632812 371.789062 L 359.632812 167.710938 L 288.355469 167.710938 Z M 288.355469 421.363281 " fill-opacity="1" fill-rule="evenodd"/><path fill="#092a5e" d="M 408.175781 77.4375 L 479.488281 77.4375 L 479.488281 399.453125 L 408.175781 399.453125 Z M 408.175781 77.4375 " fill-opacity="1" fill-rule="evenodd"/><g clip-path="url(#9892391cab)"><path fill="#092a5e" d="M 96.796875 203.320312 L 308.839844 105.796875 L 300.136719 119.332031 C 297.6875 123.105469 298.8125 128.167969 302.585938 130.582031 C 306.390625 133.03125 311.421875 131.941406 313.871094 128.132812 L 337.59375 91.171875 C 341.003906 85.941406 337.296875 78.894531 331.109375 78.597656 L 287.230469 76.542969 C 282.730469 76.34375 278.894531 79.820312 278.695312 84.285156 C 278.496094 88.789062 281.96875 92.625 286.4375 92.824219 L 296.960938 93.320312 L 90.011719 188.496094 C 85.941406 190.378906 84.125 195.210938 86.007812 199.28125 C 87.863281 203.386719 92.695312 205.171875 96.796875 203.320312 Z M 96.796875 203.320312 " fill-opacity="1" fill-rule="evenodd"/></g><g clip-path="url(#578227088f)"><path fill="#fb675e" d="M 130.285156 492.011719 C 132.5 499.988281 143.753906 499.921875 146.035156 492.011719 L 170.71875 405.378906 L 198.382812 459.050781 C 201.824219 465.738281 211.71875 464.480469 213.539062 457.265625 L 238.921875 356.53125 L 271.351562 516.996094 C 272.972656 525.070312 284.089844 525.863281 286.96875 518.21875 L 333.59375 393.496094 L 348.683594 427.285156 C 350.003906 430.230469 353.015625 432.148438 356.195312 432.148438 L 533.027344 432.148438 C 536.46875 442.671875 546.363281 450.28125 558.042969 450.28125 C 572.570312 450.28125 584.351562 438.503906 584.351562 423.976562 C 584.351562 409.414062 572.570312 397.632812 558.042969 397.632812 C 546.363281 397.632812 536.46875 405.246094 533.027344 415.800781 L 361.386719 415.800781 L 340.34375 368.746094 C 337.398438 362.125 327.835938 362.355469 325.285156 369.207031 L 281.671875 485.921875 L 247.886719 318.710938 C 246.332031 309.378906 233.957031 309.378906 231.871094 317.75 L 202.984375 432.378906 L 175.980469 379.964844 C 172.507812 372.75 162.679688 374.070312 160.695312 381.054688 L 138.257812 459.714844 L 127.933594 422.421875 C 127.207031 418.648438 123.898438 415.800781 119.925781 415.800781 L 24.03125 415.800781 C 19.53125 415.800781 15.859375 419.441406 15.859375 423.976562 C 15.859375 428.476562 19.53125 432.148438 24.03125 432.148438 L 113.738281 432.148438 Z M 130.285156 492.011719 " fill-opacity="1" fill-rule="evenodd"/></g></svg>